[img]http://leetleech.org/images/75732821922268382950.jpg[/img]

[b]Sorority Wars (2009) DVDRip XviD-SKITTLES[/b]

[img]http://leetleech.org/images/39185456263711143641.png[/img]

Video
ID                               : 0
Format                           : MPEG-4 Visual
Format profile                   : Advanced Simple@L5
Format settings, BVOP            : Yes
Format settings, QPel            : No
Format settings, GMC             : No warppoints
Format settings, Matrix          : Default (H.263)
Muxing mode                      : Packed bitstream
Codec ID                         : XVID
Codec ID/Hint                    : XviD
Duration                         : 1h 28mn
Bit rate                         : 969 Kbps
Width                            : 624 pixels
Height                           : 336 pixels
Display aspect ratio             : 1.857
Frame rate                       : 23.976 fps
Color space                      : YUV
Chroma subsampling               : 4:2:0
Bit depth                        : 8 bits
Scan type                        : Progressive
Bits/(Pixel*Frame)               : 0.193
Stream size                      : 616 MiB (88%)
Writing library                  : XviD 1.2.1 (UTC 2008-12-04)

Audio
ID                               : 1
Format                           : MPEG Audio
Format version                   : Version 1
Format profile                   : Layer 3
Mode                             : Joint stereo
Mode extension                   : MS Stereo
Codec ID                         : 55
Codec ID/Hint                    : MP3
Duration                         : 1h 28mn
Bit rate mode                    : Constant
Bit rate                         : 128 Kbps
Channel(s)                       : 2 channels
Sampling rate                    : 48.0 KHz
Stream size                      : 81.4 MiB (12%)
Alignment                        : Split accross interleaves
Interleave, duration             : 42 ms (1.00 video frame)
Interleave, preload duration     : 500 ms
 
http://www.imdb.com/title/tt1411249/

[img]http://leetleech.org/images/46941880339015444838.png[/img]

Lucy Hale	... 	Katie Parker
Courtney Thorne-Smith	... 	Lutie
Amanda Schull	... 	Gwen
Phoebe Strole	... 	Sara Snow
Kristen Hager	... 	Heather
Rob Mayes	... 	Beau
Adrian Hough	... 	William
Sarah-Jane Redmond		
Chelan Simmons	... 	Casadee
Faith Ford	... 	Summer

[img]http://leetleech.org/images/70187465700988366433.png[/img]

Genre:
Comedy | Drama

Plot: 
Katie (Lucy Hale) and Sara (Phoebe Strole) have been friends since 
childhood. They enter college together, where Katie is a prized legacy 
candidate for the Delta sorority, which was co-founded decades ago by 
her mother, Lutie (Courtney Thorne-Smith) and Summer (Faith Ford), whose
own daughter Gwen (Amanda Schull) now leads the Deltas on campus. 
Events occur during pledge week to cause a rift between Katie and 
the Deltas, which leaves Sara as a Delta pledge and Katie out in the
cold. Katie joins the rival Kappa sorority, and the rivalry splits 
not just Katie and Sara, but extends all the way into the Delta alumnae
association led by Lutie and Summer.  

[img]http://leetleech.org/images/64476088802225496360.png[/img]

[img]http://leetleech.org/images/21579609307654336653.png[/img]
[img]http://leetleech.org/images/77687653198455714648.png[/img]
[img]http://leetleech.org/images/26436072437679274243.png[/img]
[img]http://leetleech.org/images/55205671386412435857.png[/img]
[img]http://leetleech.org/images/41517472847894146356.png[/img]
[img]http://leetleech.org/images/66608551660020171358.png[/img]